<?xml version="1.0" encoding="utf-8"?>
<!-- Generator: Adobe Illustrator 24.0.1, SVG Export Plug-In . SVG Version: 6.00 Build 0)  -->
<svg version="1.1" id="Capa_1" xmlns="http://www.w3.org/2000/svg" xmlns:xlink="http://www.w3.org/1999/xlink" x="0px" y="0px"
	 viewBox="0 0 100 86.6" style="enable-background:new 0 0 100 86.6;" xml:space="preserve">
<style type="text/css">
	.st0{fill:#663E12;}
	.st1{fill:#3D250B;}
</style>
<polygon class="st0" points="8,45 57,2 61,5 59,8 63,7 64,9 63,12 68,10 71,14 71,17 74,17 78,21 78,25 83,27 86,31 86,35 90,35 
	90,38 36,77 36,74 32,73 32,68 27,67 25,64 26,60 21,60 18,56 16,51 13,50 11,47 9,46 "/>
<g>
	<g>
		<path class="st1" d="M23.91,45.7c6-5.05,10.51-11.89,17.28-16.01c3.08-1.88,6.53-3.13,9.47-5.25c1.4-1.01,2.65-2.15,3.67-3.55
			c1.29-1.78,2.02-3.88,3.23-5.71c1.07-1.62-1.53-3.12-2.59-1.51c-1.17,1.78-1.87,3.84-3.12,5.56c-1.03,1.42-2.44,2.51-3.92,3.43
			c-3,1.86-6.33,3.12-9.27,5.09c-6.47,4.33-10.96,10.85-16.87,15.82C20.31,44.83,22.44,46.94,23.91,45.7L23.91,45.7z"/>
	</g>
</g>
<g>
	<g>
		<path class="st1" d="M32.83,56.85c1.42-3.9,3.81-7.3,6.91-10.05c2.97-2.63,6.42-4.64,9.78-6.71c7.04-4.33,13.32-9.48,18.45-15.99
			c1.18-1.5-0.93-3.64-2.12-2.12c-2.66,3.39-5.65,6.5-8.95,9.28c-3.21,2.71-6.74,4.92-10.31,7.12c-3.46,2.12-6.94,4.32-9.88,7.15
			c-3.06,2.95-5.32,6.55-6.77,10.53C29.28,57.87,32.18,58.66,32.83,56.85L32.83,56.85z"/>
	</g>
</g>
<g>
	<g>
		<path class="st1" d="M36.9,66.6c6.59-4.95,11.36-11.63,16.87-17.66c2.88-3.16,6.01-6.1,9.38-8.74c3.18-2.5,6.66-4.65,10.71-5.3
			c1.9-0.3,1.09-3.2-0.8-2.89c-3.99,0.64-7.55,2.67-10.74,5.07c-3.51,2.64-6.78,5.6-9.79,8.79c-5.69,6.04-10.44,13.11-17.14,18.14
			C33.86,65.16,35.35,67.77,36.9,66.6L36.9,66.6z"/>
	</g>
</g>
</svg>
