<?xml version="1.0" encoding="utf-8"?>
<!-- Generator: Adobe Illustrator 24.0.1, SVG Export Plug-In . SVG Version: 6.00 Build 0)  -->
<svg version="1.1" id="Capa_1" xmlns="http://www.w3.org/2000/svg" xmlns:xlink="http://www.w3.org/1999/xlink" x="0px" y="0px"
	 viewBox="0 0 100 86.6" style="enable-background:new 0 0 100 86.6;" xml:space="preserve">
<style type="text/css">
	.st0{fill:#696969;}
	.st1{fill:#454545;}
</style>
<path class="st0" d="M11.5,51.18c0-3.31,9.94-24.3,9.94-24.3l8.84-13.25L44.63,7l24.3,1.1l8.84,13.25l7.73,25.4l-12.15,24.3
	L56.78,81l-25.4-6.63l-7.73-14.36L11.5,51.18z"/>
<g>
	<g>
		<path class="st1" d="M65.24,14.2c0.48-0.12,1.35,2.1,1.57,2.54c0.62,1.25,1.23,2.51,1.79,3.78c1.1,2.52,1.96,5.16,2.35,7.89
			c0.96-0.27,1.93-0.53,2.89-0.8c-0.67-2.96-0.97-5.97-0.91-9c-0.98,0.13-1.96,0.27-2.95,0.4c1.02,4.13,2.04,8.27,3.06,12.4
			c0.19,0.79,1.08,1.26,1.85,1.05c0.86-0.24,1.16-1.04,1.05-1.85c-0.89-6.34-3.87-12.28-8.34-16.84c-1.16-1.18-3.38,0.41-2.36,1.82
			c2.53,3.49,5.13,7.05,6.69,11.1c0.84-0.49,1.67-0.97,2.51-1.46c-4.57-3.8-5.68-10.41-10.96-13.57c-1.45-0.86-3.07,1.17-1.82,2.36
			c1.02,0.96,2.2,1.63,3.45,2.24c1.15,0.56,2.42,1.06,3.37,1.93c1.01,0.92,1.54,2.2,2.08,3.43c0.58,1.33,1.2,2.57,2.15,3.68
			c1.26,1.46,3.38-0.67,2.12-2.12c-1.83-2.12-2.1-5.16-4.24-7.1c-2.01-1.83-4.86-2.32-6.82-4.17c-0.61,0.79-1.21,1.57-1.82,2.36
			c2.38,1.42,3.81,3.85,5.17,6.18c1.46,2.49,2.93,5.06,5.18,6.92c1.02,0.85,3.1,0.08,2.51-1.46c-1.67-4.32-4.3-8.09-6.99-11.82
			c-0.79,0.61-1.57,1.21-2.36,1.82c4.14,4.23,6.75,9.67,7.57,15.52c0.96-0.27,1.93-0.53,2.89-0.8c-1.02-4.13-2.04-8.27-3.06-12.4
			c-0.41-1.67-2.92-1.27-2.95,0.4c-0.06,3.3,0.29,6.59,1.02,9.8c0.18,0.79,1.09,1.26,1.85,1.05c0.86-0.24,1.16-1.04,1.05-1.85
			c-0.5-3.44-1.75-6.69-3.21-9.83c-0.69-1.48-1.37-3.01-2.18-4.43c-0.84-1.47-2.27-2.49-4.01-2.05
			C62.57,11.78,63.36,14.68,65.24,14.2L65.24,14.2z"/>
	</g>
</g>
<g>
	<g>
		<path class="st1" d="M64.57,75.23c5.1-4.8,8.88-10.87,10.98-17.55c0.58-1.85-2.31-2.64-2.89-0.8
			c-1.95,6.19-5.49,11.77-10.21,16.22C61.04,74.44,63.17,76.56,64.57,75.23L64.57,75.23z"/>
	</g>
</g>
<g>
	<g>
		<path class="st1" d="M71.57,70.6c0-0.6,0.89-1.46,1.2-1.96c0.44-0.69,0.84-1.4,1.21-2.13c0.81-1.57,1.5-3.21,2.12-4.87
			c1.32-3.5,2.39-7.1,3.53-10.66c0.59-1.84-2.3-2.63-2.89-0.8c-1.18,3.67-2.28,7.38-3.66,10.99c-0.62,1.63-1.34,3.22-2.19,4.75
			c-0.82,1.46-2.34,2.93-2.32,4.68C68.59,72.53,71.59,72.54,71.57,70.6L71.57,70.6z"/>
	</g>
</g>
<g>
	<g>
		<path class="st1" d="M61.29,72.76c-2.83,0.84-5.68,1.57-8.57,2.19c-1.7,0.37-1.24,2.89,0.4,2.95c2.09,0.07,4-0.7,5.88-1.54
			c1.58-0.7,3.15-1.46,4.65-2.33c3.03-1.76,5.77-4.02,7.61-7.04c-0.91-0.12-1.83-0.24-2.74-0.36c0,0.09,0.01,0.09,0.02-0.03
			c-0.04,0.07-0.08,0.14-0.12,0.21c-0.12,0.18-0.26,0.33-0.41,0.48c-0.43,0.43-0.91,0.81-1.36,1.21c-0.87,0.76-1.74,1.54-2.63,2.28
			c-1.58,1.32-3.28,2.45-5.35,2.75c-0.8,0.12-1.24,1.13-1.05,1.85c0.24,0.86,1.04,1.17,1.85,1.05c2.75-0.41,5.03-2.12,7.09-3.88
			c1.14-0.97,2.3-1.94,3.39-2.96c1.08-1.01,1.79-2.25,1.46-3.76c-0.28-1.3-2.1-1.41-2.74-0.36c-1.57,2.58-3.95,4.46-6.53,5.96
			c-1.31,0.76-2.67,1.43-4.04,2.06c-1.58,0.72-3.2,1.46-4.97,1.4c0.13,0.98,0.27,1.96,0.4,2.95c2.88-0.62,5.74-1.35,8.57-2.19
			C63.93,75.11,63.15,72.21,61.29,72.76L61.29,72.76z"/>
	</g>
</g>
<g>
	<g>
		<path class="st1" d="M27.63,60.92c0.23-2.45,2.28-4.51,3.96-6.24c-0.85-0.35-1.71-0.71-2.56-1.06c-0.13,1.2-0.25,2.39-0.38,3.59
			c-0.02,0.15-0.06,0.59-0.07,0.62c-0.01,0.05-0.07,0.41-0.07,0.32c0-0.04,0.22-0.1,0.22-0.07c0,0.03-0.4-0.03-0.36-0.02
			c-0.88-0.19-1.74-0.78-2.59-1.22c-1.06-0.55-2.11-1.1-3.17-1.65c-0.25,0.93-0.5,1.86-0.76,2.8c0.92-0.1,1.78,0.55,2.69,0.75
			c1.06,0.23,2.17,0.14,3.18-0.25c2.09-0.82,3.44-2.51,4.74-4.25c0.35-0.47,0.22-1.25-0.12-1.67c-0.4-0.5-0.96-0.64-1.58-0.54
			c-3.79,0.64-7.68,0.39-11.38-0.64c-0.64-0.18-1.36,0.12-1.69,0.69c-0.31,0.52-0.28,1.42,0.23,1.82c1.43,1.11,2.97,1.97,4.69,2.56
			c0.81,0.27,1.64,0.47,2.48,0.59c0.47,0.07,0.94,0.13,1.41,0.16c0.2,0.01,0.41,0.02,0.61,0.02c0.07,0,0.14,0,0.2,0
			c0.49,0.04,0.27-0.18-0.65-0.64c-0.01-0.13-0.02-0.14-0.02-0.03c0,0.11,0,0.1,0.01,0c-0.05,0.16-0.09,0.33-0.13,0.49
			c-0.11,0.38-0.21,0.76-0.29,1.15c-0.18,0.84-0.31,1.7-0.34,2.56c-0.06,1.73,0.31,3.51,1.28,4.96c0.41,0.62,1.17,0.92,1.87,0.61
			c0.74-0.33,0.97-1,0.87-1.77c-0.05-0.39,0.22-1.17,0.48-1.7c0.4-0.83,0.85-1.64,1.18-2.5c0.34-0.89,0.44-1.82,0.42-2.76
			c-0.02-0.83-0.12-1.55,0.29-2.14c-0.93-0.25-1.86-0.5-2.8-0.76c0.07,0.96,0.09,1.92,0.05,2.89c-0.03,0.81,0.71,1.5,1.5,1.5
			c0.84,0,1.47-0.69,1.5-1.5c0.04-0.96,0.02-1.93-0.05-2.89c-0.11-1.51-1.93-2.01-2.8-0.76c-0.66,0.96-0.74,2.13-0.71,3.26
			c0.02,0.88,0.01,1.59-0.29,2.33c-0.37,0.91-0.89,1.75-1.27,2.66c-0.43,1.04-0.55,2.05-0.4,3.16c0.91-0.39,1.83-0.77,2.74-1.16
			c-0.85-1.28-0.99-2.71-0.81-4.23c0.18-1.48,1.25-3.34,0.34-4.77c-0.6-0.94-1.59-0.93-2.58-0.98c-0.82-0.04-1.62-0.17-2.42-0.38
			c-1.52-0.4-3-1.08-4.24-2.05c-0.49,0.84-0.97,1.67-1.46,2.51c4.23,1.18,8.64,1.37,12.97,0.64c-0.56-0.73-1.13-1.47-1.69-2.2
			C29,53.89,28,55.27,26.54,55.73c-1.63,0.51-3.01-0.93-4.69-0.74c-0.67,0.07-1.26,0.42-1.45,1.1c-0.17,0.62,0.1,1.39,0.69,1.69
			c1.3,0.68,2.6,1.36,3.91,2.04c1.16,0.61,2.44,1.39,3.81,1.25c1.69-0.17,2.54-1.43,2.75-3.02c0.19-1.47,0.32-2.95,0.47-4.43
			c0.14-1.33-1.71-1.93-2.56-1.06c-2.31,2.37-4.51,4.94-4.84,8.36c-0.08,0.81,0.74,1.5,1.5,1.5C27,62.42,27.55,61.73,27.63,60.92
			L27.63,60.92z"/>
	</g>
</g>
<g>
	<g>
		<path class="st1" d="M30.09,15.25c-1.14,2.51-2.48,4.9-4.04,7.17c0.86,0.5,1.73,1.01,2.59,1.51c1.34-2.85,3.79-5.11,6-7.3
			c2.15-2.12,4.53-4.13,7.48-5.02c-0.39-0.91-0.77-1.83-1.16-2.74c-1.99,1.04-3.99,2.12-5.63,3.67c-0.8,0.75-1.47,1.62-2.03,2.56
			c-0.47,0.79-0.89,1.78-1.69,2.31c0.68,0.68,1.37,1.37,2.05,2.05c1.59-2.68,4.26-4.43,7.32-4.95c-0.39-0.91-0.77-1.83-1.16-2.74
			c-2.86,1.45-5.65,3.03-8.37,4.72c-1.63,1.02-0.13,3.62,1.51,2.59c2.72-1.7,5.51-3.27,8.37-4.72c0.66-0.33,0.9-1.23,0.61-1.87
			c-0.32-0.73-1.01-1-1.77-0.87c-3.79,0.64-7.16,3.04-9.11,6.33c-0.74,1.25,0.77,2.89,2.05,2.05c1.9-1.24,2.47-3.46,4.01-5.02
			c1.51-1.54,3.46-2.53,5.35-3.52c1.51-0.79,0.47-3.23-1.16-2.74c-3.37,1.02-6.15,3.2-8.63,5.63c-2.44,2.39-5.17,4.94-6.64,8.07
			c-0.82,1.74,1.49,3.12,2.59,1.51c1.55-2.27,2.9-4.67,4.04-7.17c0.33-0.74,0.21-1.61-0.54-2.05C31.5,14.34,30.42,14.51,30.09,15.25
			L30.09,15.25z"/>
	</g>
</g>
<g>
	<g>
		<path class="st1" d="M49.68,39.56c1.93-0.2,3.62-1.09,5.23-2.12c1.61-1.03,3.03-2.57,2.94-4.61c-1,0-2,0-3,0
			c0.11,1.08-0.15,2.13-0.53,3.13c-0.09,0.24-0.57,1.24-0.89,1.08c0.1,0.79,0.2,1.57,0.3,2.36c1.33-1.1,2.66-2.19,3.99-3.29
			c1.3-1.07-0.43-3.35-1.82-2.36c-3.32,2.36-6.93,4.29-10.76,5.68c0.39,0.91,0.77,1.83,1.16,2.74c2.19-1.13,4.38-2.26,6.58-3.4
			c1.48-0.77,0.45-3.36-1.16-2.74c-1.13,0.44-2.1,1.03-3.06,1.77c-0.88,0.68-1.83,1.4-2.5,2.29c-0.69,0.92-0.89,2.04-0.77,3.17
			c0.09,0.91,0.39,1.89,0.08,2.77c0.98,0.13,1.96,0.27,2.95,0.4c-0.01-0.99-0.02-1.97-0.03-2.96c0-0.49-0.01-0.99-0.01-1.48
			c0-0.18,0.07-0.5-0.01-0.67c-0.12-0.28,0.15-0.24-0.14-0.05c0.53-0.36,1.41-0.63,2.06-0.88c0.39-0.15,0.79-0.3,1.18-0.44
			c0.35-0.12,0.88-0.4,1.2-0.44c-0.25-0.07-0.5-0.14-0.76-0.2c0.03,0.02,0.07,0.05,0.1,0.07c-0.23-0.3-0.46-0.6-0.69-0.9
			c0.01,0.04,0.02,0.09,0.03,0.13c0-0.27,0-0.53,0-0.8c0.09-0.43,0.29-0.21,0.02-0.15c0.06-0.01-0.37,0.17-0.32,0.15
			c-0.41,0.17-0.84,0.3-1.24,0.5c-0.84,0.42-1.43,1.13-1.81,1.98c-0.84,1.91-1.55,3.88-2.31,5.81c0.91-0.12,1.83-0.24,2.74-0.36
			c0.19,0.41,0.04,0.41,0.25,0.1c0.13-0.2,0.28-0.39,0.43-0.58c0.27-0.35,0.55-0.7,0.83-1.04c0.62-0.76,1.27-1.5,1.94-2.22
			c1.34-1.44,2.77-2.78,4.28-4.04c0.62-0.52,0.54-1.58,0-2.12c-0.62-0.62-1.5-0.52-2.12,0c-1.82,1.52-3.53,3.17-5.11,4.95
			c-0.79,0.89-1.54,1.82-2.27,2.76c-0.88,1.14-1.5,2.27-0.82,3.7c0.25,0.53,0.96,0.8,1.49,0.72c0.63-0.1,1.02-0.49,1.25-1.07
			c0.45-1.14,0.9-2.29,1.36-3.43c0.28-0.72,0.57-2.08,1.22-2.49c0.76-0.48,1.76-0.59,2.46-1.29c1.04-1.04,0.77-3.15-0.96-3.18
			c-0.59-0.01-1.22,0.28-1.76,0.47c-0.56,0.19-1.11,0.4-1.66,0.61c-1,0.4-2.38,0.76-3.15,1.56c-0.91,0.95-0.74,2.3-0.73,3.51
			c0.01,1.26,0.02,2.51,0.03,3.77c0.02,1.75,2.39,1.96,2.95,0.4c0.3-0.86,0.27-1.74,0.15-2.63c-0.08-0.65-0.34-1.56-0.06-2.16
			c0.33-0.7,1.28-1.28,1.87-1.76c0.66-0.54,1.4-1.05,2.19-1.36c-0.39-0.91-0.77-1.83-1.16-2.74c-2.19,1.13-4.38,2.26-6.58,3.4
			c-1.49,0.77-0.46,3.32,1.16,2.74c4.08-1.47,7.94-3.46,11.48-5.98c-0.61-0.79-1.21-1.57-1.82-2.36c-1.33,1.1-2.66,2.19-3.99,3.29
			c-0.72,0.59-0.51,1.95,0.3,2.36c4.02,1.99,6.26-3.7,5.94-6.81c-0.08-0.81-0.63-1.5-1.5-1.5c-0.78,0-1.54,0.69-1.5,1.5
			c0.05,1.11-1,1.75-1.84,2.26c-1.01,0.61-2.13,1.34-3.33,1.47c-0.81,0.08-1.5,0.63-1.5,1.5C48.18,38.81,48.87,39.65,49.68,39.56
			L49.68,39.56z"/>
	</g>
</g>
<g>
	<g>
		<path class="st1" d="M16.4,49.75c0.15,0.33,0.02,0.01-0.01-0.08c-0.02-0.07-0.03-0.15-0.05-0.23c0.01,0.06,0.02,0.11,0.03,0.17
			c-0.05-0.06,0-0.27,0-0.35c0-0.32-0.08,0.23,0.01-0.06c0.04-0.11,0.06-0.22,0.1-0.33c-0.11,0.34,0,0.02,0.05-0.06
			c0.08-0.14,0.21-0.23,0.04-0.07c0.1-0.1,0.19-0.2,0.3-0.29c0.49-0.45,0.88-1,0.99-1.67c0.06-0.35,0.08-0.68,0.08-1.03
			c0-0.13,0.02-0.26,0-0.39c0.01-0.11,0-0.09-0.02,0.08c0.01-0.08,0.03-0.16,0.06-0.24c0.21-0.72-0.19-1.49-0.87-1.77
			c-0.67-0.28-1.51-0.04-1.87,0.61c-0.5,0.89-1.02,1.77-1.49,2.68c-0.49,0.96-0.93,2.04-0.87,3.14c0.13,2.26,2.01,3.51,4.07,3.84
			c0.77,0.13,1.65-0.2,1.85-1.05c0.18-0.78-0.23-1.64-1.05-1.85c-0.07-0.02-0.15-0.04-0.22-0.06c0.18,0.08,0.2,0.08,0.05,0.01
			c-0.14-0.09-0.13-0.08,0.03,0.04c-0.06-0.05-0.11-0.1-0.17-0.15c-0.05-0.05-0.11-0.11-0.15-0.17c0.12,0.15,0.13,0.16,0.03,0.02
			c-0.05-0.1-0.12-0.2-0.17-0.31c0.17,0.33-0.02-0.11-0.05-0.2c-0.02-0.08-0.04-0.15-0.05-0.23c0.02,0.18,0.03,0.18,0.01-0.02
			c0-0.2,0-0.4,0.01-0.6c0.02-0.18,0.02-0.2,0-0.05c0.01-0.07,0.02-0.15,0.04-0.22c0.3-1.59,1.02-3.1,0.84-4.76
			c-0.08-0.75-0.51-1.37-1.3-1.47c-0.7-0.09-1.49,0.34-1.65,1.07c-0.31,1.42-0.62,2.84-0.93,4.26c-0.3,1.37-0.78,3.04,0.16,4.28
			c0.47,0.63,1.32,1.01,2.05,0.54c0.62-0.4,1.04-1.38,0.54-2.05c-0.09-0.12-0.17-0.3-0.09-0.06c-0.05-0.15-0.07-0.33-0.05-0.07
			c-0.01-0.12-0.01-0.25-0.01-0.37c0.01-0.13,0.05-0.37,0-0.11c0.1-0.61,0.25-1.21,0.39-1.82c0.28-1.27,0.55-2.53,0.83-3.8
			c-0.98-0.13-1.96-0.27-2.95-0.4c0.02,0.22,0.04,0.45,0.03,0.67c0,0.1-0.02,0.2-0.02,0.3c-0.01,0.11-0.01,0.1,0.01-0.03
			c-0.01,0.05-0.02,0.1-0.03,0.15c-0.09,0.42-0.19,0.84-0.31,1.25c-0.27,0.95-0.54,1.91-0.58,2.91c-0.06,1.87,0.98,3.85,2.89,4.33
			c0.27-0.96,0.53-1.93,0.8-2.89c-0.31-0.05-0.62-0.11-0.92-0.2c-0.08-0.02-0.15-0.05-0.22-0.07c-0.35-0.11,0.16,0.09-0.02,0
			c-0.14-0.07-0.27-0.14-0.4-0.22c-0.04-0.03-0.2-0.18-0.08-0.05c0.14,0.14-0.03-0.04-0.06-0.07c-0.03-0.03-0.17-0.22-0.06-0.06
			c0.11,0.17-0.02-0.06-0.04-0.08c-0.1-0.11,0.03,0.17-0.01,0c-0.02-0.08-0.04-0.17-0.07-0.25c-0.06-0.18-0.02,0.19,0.01,0.01
			c0.01-0.1,0.01-0.23,0.01-0.33c0,0.15-0.03,0.14,0.01,0c0.02-0.09,0.04-0.18,0.06-0.27c0.05-0.18,0.12-0.36,0.18-0.53
			c-0.05,0.15-0.03,0.06,0.02-0.04c0.04-0.09,0.08-0.17,0.12-0.26c0.08-0.17,0.17-0.34,0.26-0.5c0.42-0.77,0.86-1.54,1.29-2.31
			c-0.91-0.39-1.83-0.77-2.74-1.16c-0.11,0.37-0.15,0.77-0.15,1.15c0,0.15,0,0.3,0,0.45c0,0.06,0,0.13-0.01,0.19
			c0.04-0.19,0.04-0.2,0-0.03c-0.14,0.33,0.05-0.13,0.11-0.13c-0.04,0-0.3,0.29-0.34,0.33c-0.25,0.24-0.47,0.5-0.66,0.78
			c-0.85,1.22-0.81,2.79-0.23,4.1c0.32,0.72,1.42,0.94,2.05,0.54C16.6,51.32,16.74,50.52,16.4,49.75L16.4,49.75z"/>
	</g>
</g>
<g>
	<g>
		<path class="st1" d="M18.28,54.8c0.77,0.88,1.64,1.62,2.6,2.3c0.5-0.86,1.01-1.73,1.51-2.59c-2.56-1.75-4.08-4.65-4.14-7.74
			c-0.98,0.13-1.96,0.27-2.95,0.4c0.83,2.44,1.42,4.94,1.79,7.49c0.91-0.39,1.83-0.77,2.74-1.16c-1.88-3.27-1.26-7.22-0.66-10.76
			c0.32-1.87-2.5-2.71-2.89-0.8c-0.75,3.65-1.18,8.41,2.67,10.53c1.66,0.92,3.72,1.15,5.57,1.4c2.15,0.29,4.27,0.31,6.36-0.32
			c-0.62-0.35-1.23-0.7-1.85-1.05c0.63,3.01-1.06,6.07-1.21,9.08c-0.14,2.84,0.65,5.68,2.14,8.09c0.68-0.68,1.37-1.37,2.05-2.05
			c-1.01-0.77-0.29-3.87-0.21-4.85c0.18-2.15,0.35-4.3,0.53-6.45c-1,0-2,0-3,0c-0.18,4.48-0.28,8.96-0.29,13.45
			c0.93-0.25,1.86-0.5,2.8-0.76c-1.24-1.93-2.6-3.97-2.81-6.32c-0.17-1.91-3.17-1.93-3,0c0.27,2.94,1.65,5.39,3.22,7.83
			c0.79,1.23,2.79,0.77,2.8-0.76c0.01-4.48,0.11-8.97,0.29-13.45c0.08-1.95-2.84-1.9-3,0c-0.23,2.79-0.47,5.57-0.69,8.36
			c-0.17,2.15,0.03,4.15,1.85,5.53c1.23,0.94,2.79-0.85,2.05-2.05c-1.45-2.37-2.06-5.13-1.57-7.89c0.52-2.9,1.58-5.58,0.96-8.57
			c-0.16-0.78-1.11-1.27-1.85-1.05c-2.77,0.83-6.18,0.42-8.91-0.48c-3.2-1.05-2.53-4.88-2-7.44c-0.96-0.27-1.93-0.53-2.89-0.8
			c-0.74,4.38-1.35,9.04,0.96,13.07c0.91,1.59,2.97,0.43,2.74-1.16c-0.36-2.55-0.96-5.05-1.79-7.49c-0.52-1.54-2.98-1.37-2.95,0.4
			c0.08,4.19,2.18,7.97,5.63,10.33c1.6,1.09,3.08-1.49,1.51-2.59c-0.75-0.53-1.39-1.14-1.99-1.83
			C19.13,51.22,17.02,53.35,18.28,54.8L18.28,54.8z"/>
	</g>
</g>
</svg>
